<?xml version="1.0" encoding="utf-8"?>
<!-- Generator: Adobe Illustrator 25.2.2, SVG Export Plug-In . SVG Version: 6.00 Build 0)  -->
<svg version="1.1" id="Layer_1" xmlns="http://www.w3.org/2000/svg" xmlns:xlink="http://www.w3.org/1999/xlink" x="0px" y="0px"
	 viewBox="0 0 1151.2 556.6" style="enable-background:new 0 0 1151.2 556.6;" xml:space="preserve">
<style type="text/css">
	.st0{fill:#18181B;}
</style>
<g>
	<path class="st0" d="M40.2,372.8L40.2,372.8L40.2,372.8z"/>
	<path class="st0" d="M40.2,372.8L40.2,372.8L40.2,372.8z"/>
	<path class="st0" d="M214.9,314.8c-4.6-8.6-10.7-15.8-17.2-21.6c-4.9-4.4-10.1-8.1-15.3-11.3c-7.9-4.8-15.8-8.3-23.1-11.1
		c-7.2-2.7-13.8-4.7-19.2-6.3c-12.3-4.2-24.5-7-35.9-9.8c-8.7-2.1-16.9-4.2-24.1-6.6c-5.4-1.8-10.2-3.7-14.3-5.8
		c-3.1-1.6-5.7-3.2-7.9-5c-1.7-1.3-3.1-2.7-4.4-4.1c-1.9-2.2-3.4-4.5-4.7-7.5c-1.3-2.9-2.3-6.5-2.9-11c-0.2-1.2-0.2-2.5-0.2-3.8
		c0-4,0.8-8.5,2.6-13c1.4-3.4,3.4-6.7,6.1-10c4.1-4.9,9.9-9.6,18.4-13.5s19.8-7,34.6-8.1c2.7-0.2,5.3-0.3,7.8-0.3
		c10.5,0,19.8,1.6,27.9,4c12.1,3.6,21.6,8.9,27.9,13.3c3.1,2.2,5.5,4.1,6.9,5.4c0.7,0.6,1.2,1.1,1.5,1.4c0.1,0.1,0.2,0.2,0.2,0.2
		l0,0l0,0c7.6,7.9,20.1,8.3,28.2,0.8c8-7.6,8.4-20.2,0.9-28.3c-1-1-9.6-10-25.4-19c-7.9-4.5-17.6-8.9-29-12.3
		c-11.4-3.4-24.6-5.6-39.2-5.6c-3.5,0-7.1,0.1-10.7,0.4c-16.7,1.2-31.3,4.5-43.8,9.6c-9.4,3.8-17.6,8.6-24.6,14.2
		c-10.5,8.3-18.3,18.4-23.2,28.9c-5,10.5-7.2,21.4-7.2,31.8c0,3,0.2,6,0.6,9c1.1,8.3,3.2,16,6.4,22.9c2.8,6.1,6.4,11.6,10.5,16.3
		c3.6,4.2,7.6,7.8,11.8,10.9c7.4,5.5,15.3,9.4,23.3,12.6c12,4.8,24.4,7.8,36.2,10.8c11.9,2.9,23.3,5.6,33.2,9l1.1,0.3
		c5.7,1.6,12.4,3.6,19,6.3c5,2,9.9,4.4,14.4,7.2c3.3,2.1,6.4,4.3,9.1,6.8c2,1.8,3.8,3.7,5.3,5.7c2.3,3,4.1,6.2,5.4,9.9
		c1.3,3.7,2.1,7.9,2.1,13.1c0,3.7-0.4,7.8-1.4,12.6c-0.7,3.3-1.6,6.1-2.8,8.8c-2.1,4.6-4.8,8.4-8.4,11.8c-2.7,2.6-5.9,4.9-9.7,7
		c-5.6,3.1-12.6,5.7-20.6,7.4c-8,1.7-17.2,2.6-27,2.6c-0.6,0-1.2,0-1.8,0c-12-0.1-22.9-2.1-32.6-4.9C65,393,53.2,386.6,45.2,381.4
		c-4-2.6-7-4.9-9-6.5c-1-0.8-1.7-1.4-2.1-1.8c-0.2-0.2-0.3-0.3-0.4-0.4l0,0l0,0l0,0c-8-7.5-20.6-7.2-28.2,0.7
		c-7.6,8-7.3,20.7,0.7,28.3l0,0c0.9,0.9,11.2,10.5,29.2,20.3c9,4.9,20.1,9.8,32.9,13.5s27.4,6.3,43.4,6.5c0.7,0,1.5,0,2.2,0
		c12.5,0,24.5-1.1,36-3.6c8.6-1.9,16.8-4.5,24.5-8.1c5.8-2.7,11.3-5.8,16.4-9.6c7.6-5.6,14.4-12.5,19.7-20.7
		c5.3-8.1,9.1-17.5,11.2-27.5c1.5-7.2,2.2-14.1,2.2-20.7c0-7.4-0.9-14.5-2.7-21C219.7,325.1,217.5,319.7,214.9,314.8z M33.8,372.8
		L33.8,372.8L33.8,372.8L33.8,372.8z M33.7,372.8L33.7,372.8L33.7,372.8L33.7,372.8z"/>
	<path class="st0" d="M558.3,288.8L558.3,288.8c0-11-8.9-20-19.9-20.1s-20,8.9-20.1,19.9v0.2c0,15.7-3.2,30.4-9,43.7
		c-8.6,20-23.1,36.8-41.2,48.8c-18.2,11.9-40,18.8-63.5,18.8h-0.1c-15.3,0-29.8-3.4-43.1-9.5c-9.9-4.6-19.2-10.7-27.5-18.1
		c-12.4-11.1-22.7-25-29.8-40.6C297,316.3,293,299,293,281.2v-0.1l0,0l0,0c0-15.8,3.2-30.7,8.8-44.3c8.5-20.4,22.8-37.7,40.8-50
		c9-6.1,18.9-10.9,29.4-14.2s21.7-5.1,33.4-5.1h0.1l0,0c39.9,0,75.2,19.7,95.1,50.2c4.3,6.6,10.1,12,16.9,15.7s14.5,5.8,22.5,5.8
		l0,0h33l0,0l0,0l0,0c0.1,0,0.2,0,0.4,0l0,0c7.8-0.1,15.3-2.1,21.8-5.7c6.7-3.7,12.4-9,16.6-15.4c4.2-6.5,9.9-12.9,16.4-18.8
		c9.9-8.9,21.9-16.6,34.3-22.1c6.2-2.8,12.5-5,18.6-6.6s12-2.6,17.4-3c2.7-0.2,5.3-0.3,8-0.3c17.9,0,34.9,4.1,50.1,11.6
		c15.2,7.5,31.6,22.7,42.3,35.9c6.9,8.6,19.5,10,28.1,3c8.6-6.9,10-19.5,3-28.1l0,0C815.9,172,794.9,153,774.4,143
		c-20.5-10.1-43.6-15.7-67.7-15.7c-3.5,0-7.1,0.1-10.7,0.4c-11.1,0.8-22.3,3.1-33.3,6.7c-16.5,5.4-32.6,13.6-47.1,24.1
		c-7.2,5.2-14.1,11-20.3,17.3s-11.9,13.2-16.7,20.6c-0.7,1-1.5,1.8-2.4,2.3s-1.9,0.7-2.9,0.8l0,0l0,0h-33c-1.2,0-2.3-0.3-3.3-0.9
		c-1-0.6-2-1.4-2.7-2.5c-27.4-42.1-75.5-68.3-128.6-68.4l0,0h-0.1c-21,0-41.1,4.3-59.4,12.1c-27.4,11.7-50.6,31.2-67,55.6
		c-8.2,12.2-14.7,25.8-19.2,40.2c-4.4,14.4-6.8,29.8-6.8,45.6c0,0,0,0.1,0,0.2v-0.1c0,2.3,0.1,4.6,0.2,6.8v248.5c0,11,9,20,20,20
		s20-9,20-20V388.1c7.7,8.8,16.3,16.8,25.7,23.7c12,8.8,25.4,15.9,39.8,20.8s29.8,7.5,45.7,7.6l0,0h0.1c20.9,0,41-4.1,59.3-11.6
		c27.5-11.3,51-30.2,67.8-54.3c8.4-12.1,15-25.4,19.6-39.8C555.9,320.1,558.3,304.7,558.3,288.8L558.3,288.8L558.3,288.8
		C558.3,288.9,558.3,288.9,558.3,288.8L558.3,288.8z M573.2,239.4L573.2,239.4L573.2,239.4L573.2,239.4L573.2,239.4z"/>
	<path class="st0" d="M1151.2,20c0-11-9-20-20-20s-20,9-20,20v158.3c-7.7-8.5-16.3-16.2-25.7-22.7c-12.1-8.5-25.6-15.2-40-19.7
		c-14.5-4.6-29.9-7-46-7c-21.6,0-42.3,4.7-61,13.1c-28,12.5-51.6,33.2-68.3,58.7c-8.3,12.7-14.9,26.7-19.5,41.5
		c-4.5,14.8-7,23.9-7,40c0,11,9,20,20,20s20-9,20-20c0-16,3.2-24.9,9.1-39.2c8.8-21.4,23.7-40.1,42.2-53.2
		c9.3-6.6,19.4-11.8,30.2-15.3c10.8-3.6,22.2-5.5,34.1-5.5c16,0,30.9,3.2,44.3,9c20.1,8.7,36.9,23.2,48.7,41.6
		c11.9,18.4,18.7,40.7,18.7,65c0,16.2-3.1,31.5-8.6,45.4c-8.3,20.8-22.3,38.4-40,50.7c-8.9,6.2-18.7,11.1-29.2,14.4
		c-10.6,3.3-21.9,5.2-33.9,5.2c-10.1,0-19.7-1.3-28.8-3.7c-13.6-3.6-26.1-9.7-37.1-17.9c-11-8.2-20.7-18.4-28.4-30.2l0,0
		c-3.3-5-7.6-9.1-12.8-12.1c-2.6-1.5-5.4-2.7-8.4-3.6s-6.2-1.4-9.4-1.4h-0.2h-38.6c-0.1,0-0.2,0-0.3,0c-5.9,0-11.7,1.4-16.9,4.1
		c-5.2,2.6-9.8,6.6-13.3,11.5c-4.9,7-10.8,13.6-17.4,19.7c-10,9.1-21.6,16.9-34.1,22.6s-25.8,9.3-39.1,10.2
		c-2.6,0.2-5.3,0.3-7.9,0.3c-10.4,0-20.4-1.4-29.9-4.1c-14.3-4-27.6-10.7-39.2-19.7c-11.6-9-16-12.6-24.1-25.1
		c-6.1-9.4-19.5-14.5-29-8.8s-11.3,20.1-5.6,29.6l-1.3-2.1c13.6,22.7,29.1,35.9,51.9,49.2c11.4,6.7,23.7,11.9,36.6,15.5
		c13,3.6,26.6,5.5,40.6,5.5c3.5,0,7.1-0.1,10.6-0.4c12.4-0.9,24.5-3.3,36-7.1c17.3-5.6,33.5-14.2,47.8-24.8
		c13.9-10.3,26-22.5,35.8-36.1h35.4c13.6,20.4,31.7,37.5,53.1,49.6c10.9,6.1,22.6,10.9,35,14.2c12.4,3.3,25.5,5,39,5
		c21.4,0,41.8-4.4,60.1-12.3c27.5-11.9,50.5-31.8,66.5-56.7c15.7-24.4,24.7-53.7,25.1-84.9c0-0.2,0-0.4,0-0.6V20H1151.2z
		 M835.4,371.3L835.4,371.3L835.4,371.3L835.4,371.3z"/>
	<path class="st0" d="M638.6,283.6c0,38.7,31.3,70,70,70s70-31.3,70-70s-31.3-70-70-70C670,213.6,638.6,245,638.6,283.6z"/>
</g>
</svg>
