<svg xmlns="http://www.w3.org/2000/svg" xmlns:xlink="http://www.w3.org/1999/xlink" width="37" height="37"><defs><filter id="c" color-interpolation-filters="auto"><feColorMatrix in="SourceGraphic" values="0 0 0 0 1.000000 0 0 0 0 1.000000 0 0 0 0 1.000000 0 0 0 1.000000 0"/></filter><path id="a" d="M0 .031h22.857V8.28H0z"/></defs><g fill="none" fill-rule="evenodd"><g transform="translate(3 3)"><rect width="32" height="32" fill="#31323F" rx="6"/><g transform="translate(2.595 3.46)"><g><mask id="b" fill="#fff"><use xlink:href="#a"/></mask><path fill="#FFF" d="M1.49 8.28A1.48 1.48 0 010 6.808c0-.813.667-1.472 1.49-1.472h2.109a.479.479 0 00.396-.224C5.783 2.406 9.463.28 12.745.058A11.625 11.625 0 0122.528 4.3a1.46 1.46 0 01-.225 2.07c-.64.51-1.578.41-2.095-.223a8.625 8.625 0 00-7.257-3.152c-2.347.16-5.185 1.796-6.46 3.726A3.457 3.457 0 013.6 8.28H1.49z" mask="url(#b)"/></g><path fill="#FFF" d="M13.553 24.292c-4.056 0-7.818-2.121-9.956-5.665a1.482 1.482 0 01.517-2.041 1.507 1.507 0 012.059.512c1.694 2.808 4.746 4.416 7.968 4.197 2.576-.176 5.248-1.71 6.807-3.908a2.768 2.768 0 012.292-1.164l1.814.003c.829.002 1.499.67 1.497 1.492a1.495 1.495 0 01-1.501 1.485h-.004L23.33 19.2c-2.097 2.892-5.529 4.83-8.985 5.065-.265.018-.53.027-.793.027"/><g filter="url(#c)"><g transform="matrix(1 0 0 -1 6.789 19.027)"><path fill="#000" fill-rule="nonzero" d="M13.512 5.343l-1.063-.23a5.788 5.788 0 00-.343-.826l.59-.916a.414.414 0 00-.056-.516l-1.657-1.657a.414.414 0 00-.516-.055l-.916.588a5.788 5.788 0 00-.825-.342L8.495.326A.413.413 0 008.09 0H5.747a.413.413 0 00-.404.326l-.23 1.063c-.284.093-.56.207-.826.342l-.916-.588a.414.414 0 00-.516.055L1.198 2.855a.414.414 0 00-.055.516l.588.916c-.135.266-.25.542-.342.825l-1.063.231A.414.414 0 000 5.747V8.09c0 .195.136.363.326.405l1.063.23c.093.284.207.56.342.826l-.588.916a.414.414 0 00.055.516l1.657 1.657c.137.137.352.16.516.055l.916-.589c.266.136.542.25.825.343l.231 1.063c.042.19.21.326.404.326H8.09a.413.413 0 00.405-.326l.23-1.063c.284-.093.56-.207.826-.343l.916.59a.413.413 0 00.516-.056l1.657-1.657a.414.414 0 00.055-.516l-.589-.916c.136-.266.25-.542.343-.825l1.063-.231a.414.414 0 00.326-.405V5.747a.414.414 0 00-.326-.404zM9.4 6.92a2.484 2.484 0 01-2.481 2.48 2.484 2.484 0 01-2.481-2.48 2.484 2.484 0 012.48-2.481A2.484 2.484 0 019.4 6.918z"/></g></g></g></g></g></svg>