<svg xmlns="http://www.w3.org/2000/svg" xmlns:xlink="http://www.w3.org/1999/xlink" viewBox="0 0 40 40"><style>.st0{fill:#fff}</style><g id="Layer_1"><g id="_xD83C__xDFE0_--Home-Page"><g id="SPOD-Home-Page" transform="translate(-529 -6545)"><g id="Group-72" transform="translate(80 6350)"><g id="Group-74" transform="translate(437 183)"><g id="shopping-cart" transform="translate(8 8)"><g transform="translate(4 4)"><path id="Path" d="M6.8 4c-1 0-1.9.8-1.9 1.9s.8 1.9 1.9 1.9h2.3l.6 2.3v.1l2.6 10.2-1.7 1.6c-2.4 2.4-.7 6.4 2.7 6.4h16.2c1 0 1.9-.8 1.9-1.9 0-1-.8-1.9-1.9-1.9H13.3l1.9-1.9h12.4c.7 0 1.4-.4 1.7-1l5.6-11.3c.3-.6.3-1.3-.1-1.8-.3-.6-.9-.9-1.6-.9H13l-.6-2.3c-.2-.8-1-1.4-1.8-1.4H6.8z" class="st0"/><path id="Path_1_" d="M31.3 33.2c0 1.6-1.3 2.8-2.8 2.8-1.6 0-2.8-1.3-2.8-2.8 0-1.6 1.3-2.8 2.8-2.8 1.5 0 2.8 1.2 2.8 2.8z" class="st0"/><path id="Path_2_" d="M13.4 36c1.6 0 2.8-1.3 2.8-2.8 0-1.6-1.3-2.8-2.8-2.8s-2.8 1.3-2.8 2.8c0 1.5 1.3 2.8 2.8 2.8z" class="st0"/></g></g></g></g></g></g></g></svg>