<svg xmlns="http://www.w3.org/2000/svg" xmlns:xlink="http://www.w3.org/1999/xlink" viewBox="0 0 40 40"><style>.st0{fill:#fafafa}</style><g id="Layer_1"><g id="_xD83C__xDFE0_--Home-Page"><g id="SPOD-Home-Page" transform="translate(-94 -6803)"><g id="Group-72" transform="translate(80 6350)"><g id="Group-76" transform="translate(0 439)"><g id="coin-stack" transform="translate(8 8)"><g transform="translate(6 6)"><path id="Path" d="M13.3 22.3c.9 0 1.8-.1 2.6-.2v-9c-.8-.1-1.7-.2-2.6-.2-5.2.1-9.3 2-9.3 4.3v.9c0 2.3 4.1 4.2 9.3 4.2z" class="st0"/><path id="Path_1_" d="M13.3 27c.9 0 1.8-.1 2.6-.2v-2.6c-.8.1-1.7.2-2.6.2-4.5 0-8.2-1.4-9.1-3.4-.1.3-.2.6-.2.9v.9c0 2.3 4.1 4.2 9.3 4.2z" class="st0"/><path id="Path_2_" d="M15.9 29.1v-.2c-.8.1-1.7.2-2.6.2-4.5 0-8.2-1.4-9.1-3.4-.1.3-.2.6-.2.9v.9c0 2.3 4.2 4.2 9.3 4.2 1 0 2-.1 2.9-.2-.2-.5-.3-1-.3-1.5v-.9z" class="st0"/><path id="Path_3_" d="M26.7 5.8c-5.1 0-9.3 1.9-9.3 4.2v.9c0 2.3 4.2 4.2 9.3 4.2s9.3-1.9 9.3-4.2V10c0-2.3-4.2-4.2-9.3-4.2z" class="st0"/><path id="Path_4_" d="M26.7 17.2c-4.5 0-8.2-1.4-9.1-3.4-.1.3-.2.6-.2.9v.9c0 2.3 4.2 4.2 9.3 4.2s9.3-1.9 9.3-4.2v-.9c0-.3-.1-.6-.2-.9-.9 2-4.6 3.4-9.1 3.4z" class="st0"/><path id="Path_5_" d="M26.7 21.9c-4.5 0-8.2-1.4-9.1-3.4-.1.3-.2.6-.2.9v.9c0 2.3 4.2 4.2 9.3 4.2s9.3-1.9 9.3-4.2v-.9c0-.3-.1-.6-.2-.9-.9 2-4.6 3.4-9.1 3.4z" class="st0"/><path id="Path_6_" d="M26.7 26.9c-4.5 0-8.2-1.4-9.1-3.4-.1.3-.2.6-.2.9v.9c0 2.3 4.2 4.2 9.3 4.2s9.3-1.9 9.3-4.2v-.9c0-.3-.1-.6-.2-.9-.9 2-4.6 3.4-9.1 3.4z" class="st0"/><path id="Path_7_" d="M26.7 31.6c-4.5 0-8.2-1.4-9.1-3.4-.1.3-.2.6-.2.9v.9c0 2.3 4.2 4.2 9.3 4.2S36 32.3 36 30v-.9c0-.3-.1-.6-.2-.9-.9 2-4.6 3.4-9.1 3.4z" class="st0"/></g></g></g></g></g></g></g></svg>