<svg xmlns="http://www.w3.org/2000/svg" viewBox="0 0 40 40"><style>.st0{fill:#fafafa}</style><path d="M34.2 12.6c-2.4 1-4.9 1.8-7.3 2.3.7 3.3.7 6.8 0 10.1 2.5.5 4.9 1.2 7.2 2.3h.1c1.1-2.2 1.8-4.7 1.8-7.4 0-2.6-.7-5.1-1.8-7.3zM15.6 26.7c.9 2.8 2.3 5.5 4.4 7.8 2-2.4 3.5-5 4.4-7.8-2.9-.4-5.9-.4-8.8 0zM24.9 15.3c-1.6.2-3.2.4-4.9.4-1.7 0-3.3-.2-4.9-.4-.7 3.1-.7 6.4 0 9.5 3.2-.5 6.5-.5 9.8 0 .7-3.2.7-6.4 0-9.5zM20 5.5c-2 2.4-3.5 5-4.4 7.8 2.9.4 5.8.4 8.7 0-.8-2.8-2.3-5.5-4.3-7.8zM21.4 4c2.3 2.7 4 5.8 5 9 2.3-.5 4.6-1.1 6.8-2.1C30.5 7 26.3 4.4 21.4 4zM6.8 10.9c2.2 1 4.5 1.7 6.8 2.1 1-3.2 2.6-6.3 5-9-4.9.4-9.1 3-11.8 6.9zM13.1 15c-2.5-.5-4.9-1.2-7.2-2.3h-.1C4.7 14.9 4 17.4 4 20.1s.7 5.2 1.8 7.4h.1c2.3-1 4.8-1.8 7.2-2.3-.7-3.5-.7-6.9 0-10.2zM13.6 27c-2.3.5-4.6 1.1-6.8 2.1 2.6 3.8 6.9 6.5 11.8 6.9-2.3-2.7-4-5.8-5-9zM26.4 27c-1 3.2-2.6 6.3-5 9 4.9-.4 9.1-3 11.8-6.9-2.2-.9-4.5-1.6-6.8-2.1z" class="st0"/></svg>