<svg xmlns="http://www.w3.org/2000/svg" xmlns:xlink="http://www.w3.org/1999/xlink" width="37" height="37"><g fill="none" fill-rule="evenodd"><g fill="#008DB7" fill-rule="nonzero" transform="translate(1 6)"><path d="M35.279 6.707a10.464 10.464 0 00-2.068-3.509c-.893-.994-1.987-1.774-3.273-2.343S27.198 0 25.578 0a13.7 13.7 0 00-3.714.497 13.062 13.062 0 00-7.416 5.406c.597.76 1.779 2.125 3.454 3.406.344-.94.785-1.77 1.33-2.479a7.208 7.208 0 012.484-2.072c.97-.49 2.06-.736 3.266-.736.93 0 1.763.17 2.492.513.729.342 1.35.823 1.863 1.448.513.62.897 1.376 1.162 2.26.264.883.396 1.861.396 2.935 0 1.54-.188 2.936-.56 4.185-.373 1.25-.902 2.32-1.587 3.21a7.035 7.035 0 01-2.492 2.061c-.978.486-2.068.728-3.274.728-.93 0-1.763-.167-2.492-.505a4.993 4.993 0 01-1.843-1.448c-.5-.629-.881-1.376-1.146-2.252a9.263 9.263 0 01-.308-1.483H12.06c.1 1.066.313 2.076.657 3.03.48 1.345 1.174 2.515 2.068 3.502.897.986 1.987 1.762 3.273 2.327s2.74.847 4.363.847a13.7 13.7 0 003.714-.497c1.178-.33 2.268-.8 3.274-1.412a13.282 13.282 0 002.733-2.2 13.063 13.063 0 002.075-2.876 14.917 14.917 0 001.318-3.45c.309-1.237.465-2.533.465-3.894.004-1.547-.236-2.995-.721-4.344z"/><g transform="translate(0 4.32)"><path d="M12.756 3.573c1.564 2.21 7.328 4.484 10.276 5.538-2.772-1.818-8.888-6.01-9.024-7.38 0 0-7.844 1.501-10.364-1.188-1.364-1.458-.92.38.736 2.772 3.564.793 8.376.258 8.376.258z"/><path d="M24.096 9.95s-11.532-4.369-12.22-5.486c0 0-7.812 1.18-10.932-.634-2.248-1.307-.06 1.363 3.86 3.565 3.264-.174 6.844-1.231 6.844-1.231C15.02 9.016 24.096 9.95 24.096 9.95z"/><g transform="translate(.2 6.892)"><path d="M23.424 3.379S13.788 2.507 11.176.004c0 0-7.08 2.464-10.272 1.192-3.192-1.267 2.78 3.59 9.308 4.072 6.532.488 13.212-1.89 13.212-1.89z"/></g></g></g></g></svg>