<?xml version="1.0" encoding="utf-8"?>
<!-- Generator: Adobe Illustrator 24.3.0, SVG Export Plug-In . SVG Version: 6.00 Build 0)  -->
<svg version="1.1" xmlns="http://www.w3.org/2000/svg" xmlns:xlink="http://www.w3.org/1999/xlink" x="0px" y="0px"
	 viewBox="0 0 40 40" style="enable-background:new 0 0 40 40;" xml:space="preserve">
<style type="text/css">
	.st0{fill-rule:evenodd;clip-rule:evenodd;fill:#FFFFFF;}
</style>
<g id="Layer_1">
	<g id="_xD83C__xDFE0_--Home-Page">
		<g id="SPOD-Home-Page" transform="translate(-90.000000, -6545.000000)">
			<g id="Group-72" transform="translate(80.000000, 6350.000000)">
				<g id="Group-73" transform="translate(0.000000, 183.000000)">
					<g id="icon-_x2F_-time-speed" transform="translate(8.000000, 8.000000)">
						<path id="Combined-Shape" class="st0" d="M27.4,9.8h0.1c1.3,0.3,2.7,0.6,4,1.1l0,0l6.1,2.9c0.2,0.1,0.3,0.2,0.4,0.4
							c0.1,0.2,0.1,0.4,0,0.6l0,0l-2.6,5.3c-0.1,0.3-0.4,0.4-0.6,0.4c-0.1,0-0.1,0-0.2,0l0,0l-2.9-0.9v17.9c0,0.4-0.3,0.7-0.7,0.7
							l0,0H13.2c-0.4,0-0.7-0.3-0.7-0.7l0,0V19.6l-2.9,0.9c-0.1,0-0.1,0-0.2,0c-0.3,0-0.5-0.2-0.6-0.4l0,0l-2.6-5.3
							C6,14.6,6,14.4,6,14.2c0.1-0.2,0.2-0.3,0.4-0.4l0,0l6.1-2.9c1.3-0.4,2.6-0.8,4-1.1h0.1c0.3,0,0.6,0.2,0.7,0.6
							c0.5,2.2,2.4,3.8,4.7,3.8s4.2-1.6,4.7-3.8C26.8,10,27.1,9.8,27.4,9.8z M16.7,27.6h-1.8v5.3h5.3v-1.8h-3.6v-3.5H16.7z
							 M29.1,27.6h-1.8v3.6h-3.6V33H29L29.1,27.6L29.1,27.6z M20.2,18.7h-5.3V24h1.8v-3.6h3.6L20.2,18.7L20.2,18.7z M29.1,18.7h-5.3
							v1.8h3.6V24h1.8L29.1,18.7L29.1,18.7z"/>
					</g>
				</g>
			</g>
		</g>
	</g>
</g>
<g id="Ebene_2">
</g>
</svg>
