<svg xmlns="http://www.w3.org/2000/svg" xmlns:xlink="http://www.w3.org/1999/xlink" viewBox="0 0 40 40"><g><g transform="translate(-529 -6801)"><g transform="translate(80 6350)"><g transform="translate(437 439)"><g transform="translate(8 8)"><path fill="#fafafa" fill-rule="evenodd" d="M23.6 29.6c1.1 0 2 1 2 2.2 0 1.2-.9 2.2-2 2.2s-2-1-2-2.2c0-1.2.9-2.2 2-2.2zm.2-15.6c3.1 0 6.2 1.6 6.2 5.4 0 3.5-3.7 4.9-4.5 6.1-.6.9-.4 2.3-2 2.3-1.1 0-1.6-.9-1.6-1.8 0-3.2 4.3-3.9 4.3-6.6 0-1.5-.9-2.3-2.4-2.3-3.1 0-1.9 3.6-4.3 3.6-.9 0-1.6-.6-1.6-1.6.1-2.8 2.9-5.1 5.9-5.1zm.2-6C15.2 8 8 15.2 8 24s7.2 16 16 16 16-7.2 16-16S32.8 8 24 8z" clip-rule="evenodd"/></g></g></g></g></g></svg>