<svg xmlns="http://www.w3.org/2000/svg" xmlns:xlink="http://www.w3.org/1999/xlink" width="37" height="37"><g fill="none" fill-rule="evenodd"><g fill-rule="nonzero" transform="translate(5 3)"><g><path fill="#95BF47" d="M23.122 5.804a.273.273 0 00-.258-.239c-.108 0-2.24-.043-2.24-.043s-1.786-1.739-1.958-1.935c-.173-.173-.517-.13-.646-.087 0 0-.345.11-.904.283a6.516 6.516 0 00-.431-1.065c-.624-1.217-1.572-1.87-2.691-1.87-.086 0-.15 0-.237.023-.043-.044-.065-.087-.108-.11-.495-.52-1.12-.781-1.873-.76C10.334.045 8.892 1.11 7.707 2.98c-.818 1.326-1.442 2.977-1.636 4.26-1.658.521-2.82.89-2.863.89-.84.262-.861.283-.969 1.087C2.196 9.826 0 26.973 0 26.973l18.429 3.217 7.987-2c-.021 0-3.272-22.234-3.294-22.386zM16.19 4.087c-.43.13-.904.283-1.421.457 0-.74-.108-1.783-.43-2.652 1.097.174 1.636 1.435 1.85 2.195zm-2.39.74c-.969.303-2.024.63-3.079.956.302-1.152.862-2.283 1.55-3.043.259-.283.625-.587 1.034-.76.43.847.517 2.042.495 2.846zM11.82.978c.344 0 .624.065.86.24a3.82 3.82 0 00-1.119.89c-.926 1-1.636 2.543-1.916 4.043-.883.283-1.744.543-2.519.782.517-2.369 2.476-5.89 4.693-5.955z"/><g transform="translate(4.736 3.477)"><path fill="#5E8E3E" d="M18.127 2.173c-.107 0-2.239-.043-2.239-.043S14.102.39 13.93.196a.344.344 0 00-.237-.11v26.626L21.68 24.8 18.407 2.412c-.043-.152-.172-.239-.28-.239z"/><path fill="#FFF" d="M9.258 6.325l-.926 3.499s-1.034-.478-2.26-.391c-1.81.108-1.81 1.26-1.81 1.543.108 1.565 4.177 1.912 4.414 5.585.172 2.891-1.507 4.869-3.961 5.02-2.928.153-4.543-1.586-4.543-1.586l.625-2.673s1.636 1.239 2.928 1.152a1.15 1.15 0 001.119-1.239c-.13-2.043-3.445-1.912-3.66-5.281C1.012 9.128 2.842 6.28 6.89 6.02c1.572-.108 2.369.305 2.369.305z"/></g></g></g></g></svg>