<svg xmlns="http://www.w3.org/2000/svg" xmlns:xlink="http://www.w3.org/1999/xlink" width="37" height="37"><g fill="none" fill-rule="evenodd"><g fill="#000" fill-rule="nonzero" transform="translate(4 7)"><g><path d="M6.104 12.602l9.218-9.33a3.276 3.276 0 012.347-.983c.888 0 1.721.348 2.347.982l.718.727 1.437-1.454-.719-.727A5.282 5.282 0 0017.67.233c-1.431 0-2.775.563-3.784 1.585l-9.218 9.33 1.437 1.454z"/><path d="M18.437 6.37L16.993 4.92l-9.26 9.317a3.325 3.325 0 01-4.718 0 3.374 3.374 0 010-4.745l7.992-8.04L9.563 0l-7.99 8.039a5.438 5.438 0 000 7.649 5.323 5.323 0 003.8 1.582 5.325 5.325 0 003.802-1.582l9.262-9.317zM27.6 8.116a5.322 5.322 0 00-3.802-1.582 5.325 5.325 0 00-3.802 1.583l-9.26 9.316 1.442 1.452 9.261-9.317a3.325 3.325 0 014.717 0c.63.633.975 1.475.975 2.372 0 .898-.346 1.74-.975 2.373l-7.99 8.04 1.443 1.451 7.99-8.039a5.438 5.438 0 000-7.65"/><path d="M23.068 11.202l-9.218 9.33a3.295 3.295 0 01-4.694 0l-.718-.726L7 21.26l.718.727a5.282 5.282 0 003.784 1.584c1.431 0 2.775-.563 3.784-1.585l9.217-9.33-1.436-1.454z"/></g></g></g></svg>