<svg xmlns="http://www.w3.org/2000/svg" viewBox="0 0 40 40"><path fill="#fff" d="M24 4c.7 0 1.3.6 1.3 1.3s-.6 1.4-1.3 1.4h-2.7v1.4c2.9.3 5.5 1.4 7.6 3.1l2.2-2.1c.5-.5 1.4-.5 1.9 0s.5 1.4 0 1.9l-2.2 2.1c2 2.4 3.2 5.5 3.2 8.9 0 7.7-6.3 14-14 14S6 29.7 6 22c0-7.3 5.6-13.3 12.7-13.9V6.7H16c-.7 0-1.3-.6-1.3-1.3S15.3 4 16 4h8zm.2 12.1c-.6 0-1 .1-1.5.2-.4.2-.8.4-1.1.6-.3.3-.5.6-.7.9s-.2.7-.2 1.1c0 .5.1 1 .4 1.4s.6.7 1.1 1c-1.1.4-1.7 1.3-1.7 2.5 0 .5.1.9.2 1.2.2.4.4.7.7 1 .3.3.7.5 1.1.6s1 .2 1.6.2 1.2-.1 1.6-.2c.5-.1.8-.4 1.1-.6.3-.3.5-.6.7-1s.2-.8.2-1.2c0-1.2-.6-2-1.7-2.5.5-.2.8-.6 1.1-1 .2-.4.4-.9.4-1.4 0-.4-.1-.8-.2-1.1s-.3-.6-.6-.8c-.3-.3-.6-.5-1.1-.6-.4-.2-.9-.3-1.4-.3zm-7.6 0h-1.9c-.3 1.2-.7 2.4-1.1 3.5-.4.9-.8 1.8-1.3 2.7l-.3.5v1.5h4.6v2.3h1.8v-2.3h1.3v-1.5h-1.3v-5.2h-.9c-.2.8-.5 1.5-.8 2.1l-.2.4v2.7h-2.9c.2-.2.4-.6.7-1.1s.6-1.1.9-1.7c.3-.6.6-1.3.9-2 .2-.6.4-1.1.5-1.6v-.3zm7.6 6c.6 0 1 .1 1.3.4s.5.7.5 1.2-.2.9-.5 1.2c-.3.3-.8.4-1.3.4-.6 0-1-.1-1.3-.4s-.5-.7-.5-1.2.2-.9.5-1.2c.3-.3.7-.4 1.3-.4zm0-4.5c.5 0 .9.1 1.2.4.3.3.4.6.4 1.1s-.1.9-.4 1.1c-.3.3-.7.4-1.2.4s-.9-.1-1.2-.4c-.3-.3-.4-.6-.4-1.1s.1-.9.4-1.1c.3-.3.7-.4 1.2-.4z"/></svg>