<svg xmlns="http://www.w3.org/2000/svg" xmlns:xlink="http://www.w3.org/1999/xlink" viewBox="0 0 40 40"><style>.st0{fill:#fff}</style><g id="Layer_1"><g id="_xD83C__xDFE0_--Home-Page"><g id="SPOD-Home-Page" transform="translate(-750 -1286)"><g id="Group-48" transform="translate(0 842)"><g id="Group-15" transform="translate(82 432)"><g id="Group-9-Copy" transform="translate(656)"><g id="wallet-filled-money-tool" transform="translate(8 8)"><g transform="translate(4 4)"><path id="Path" d="M11.5 10.6l12.8-3.5-.7-1.4c-.4-.9-1.5-1.3-2.4-.8L9.7 10.6h1.8z" class="st0"/><path id="Path_1_" d="M28.2 7.2c-.2 0-.3 0-.5.1l-3 .8-9.2 2.5h15l-.6-2.1c-.2-.8-.9-1.3-1.7-1.3z" class="st0"/><path id="Path_2_" d="M32.4 11.8H5.8c-.6 0-1.1.3-1.4.7-.2.2-.3.4-.3.7-.1.1-.1.3-.1.4v20c0 1 .8 1.8 1.8 1.8h26.6c1 0 1.8-.8 1.8-1.8v-5H23.5c-1.7 0-3.1-1.4-3.1-3.1v-4c0-.8.3-1.6.9-2.1.5-.5 1.1-.8 1.8-.9h11.2v-4.9c-.2-1-1-1.8-1.9-1.8z" class="st0"/><path id="Shape_2_" d="M35.4 20.2c-.2-.2-.4-.3-.6-.4-.2-.1-.4-.1-.6-.1H23.5c-1 0-1.8.8-1.8 1.8v4.1c0 1 .8 1.8 1.8 1.8h10.7c.2 0 .4 0 .6-.1.2-.1.4-.2.6-.4.4-.3.6-.8.6-1.3v-4c0-.6-.2-1-.6-1.4zm-8.2 3.7c0 .5-.4.9-.9.9h-.6c-.5 0-.9-.4-.9-.9v-.6c0-.3.1-.5.3-.7.2-.1.3-.2.6-.2H26.3c.5 0 .9.4.9.9v.6z" class="st0"/></g></g></g></g></g></g></g></g></svg>