<svg xmlns="http://www.w3.org/2000/svg" xmlns:xlink="http://www.w3.org/1999/xlink" width="37" height="37"><g fill="none" fill-rule="evenodd"><path fill="#7F54B3" d="M33.551 7H3.434A3.439 3.439 0 000 10.458v11.525a3.452 3.452 0 003.45 3.458h14.264l6.52 3.64-1.483-3.64h10.8A3.452 3.452 0 0037 21.983V10.458A3.452 3.452 0 0033.551 7zM2.8 9.67c-.424.03-.741.181-.953.47-.212.272-.288.621-.242 1.015.892 5.687 1.724 9.524 2.496 11.51.302.729.65 1.078 1.058 1.047.636-.045 1.392-.925 2.285-2.639.469-.97 1.195-2.426 2.178-4.367.817 2.866 1.936 5.02 3.343 6.46.393.41.802.592 1.195.561.348-.03.62-.212.802-.546.15-.288.211-.621.181-1-.09-1.38.045-3.307.424-5.779.393-2.547.877-4.382 1.467-5.474a1.32 1.32 0 00.151-.728 1.189 1.189 0 00-.469-.865 1.312 1.312 0 00-.953-.303c-.438.03-.771.243-.998.667-.938 1.714-1.604 4.49-1.997 8.341-.575-1.456-1.059-3.17-1.437-5.186-.166-.895-.575-1.32-1.24-1.274-.454.03-.832.334-1.135.91l-3.312 6.324c-.545-2.2-1.06-4.883-1.528-8.053-.106-.789-.545-1.153-1.316-1.092zm29.149 1.091c1.074.228 1.876.804 2.42 1.76.484.818.726 1.804.726 2.987 0 1.562-.393 2.987-1.18 4.292-.907 1.516-2.087 2.274-3.554 2.274-.258 0-.53-.03-.817-.09-1.074-.228-1.876-.804-2.42-1.76-.485-.834-.727-1.835-.727-3.003 0-1.562.394-2.987 1.18-4.276.923-1.517 2.103-2.275 3.555-2.275.257 0 .53.03.817.091zm-.635 8.204c.56-.5.937-1.243 1.15-2.244.06-.349.105-.728.105-1.122 0-.44-.09-.91-.272-1.38-.227-.592-.53-.91-.893-.986-.544-.106-1.074.197-1.573.94a4.91 4.91 0 00-.802 1.805 5.284 5.284 0 00-.106 1.107c0 .44.091.91.273 1.38.227.591.53.91.892.986.378.076.787-.091 1.226-.486zm-6.43-6.445c-.544-.955-1.36-1.531-2.42-1.759a3.962 3.962 0 00-.817-.091c-1.452 0-2.632.758-3.554 2.275-.787 1.289-1.18 2.714-1.18 4.276 0 1.168.242 2.17.726 3.003.545.956 1.346 1.532 2.42 1.76.288.06.56.09.817.09 1.467 0 2.647-.758 3.555-2.274.786-1.305 1.18-2.73 1.18-4.292 0-1.183-.242-2.169-.726-2.988zm-1.905 4.201c-.212 1-.59 1.744-1.15 2.244-.439.395-.847.562-1.225.486-.363-.076-.666-.395-.893-.986a3.857 3.857 0 01-.272-1.38c0-.38.03-.758.106-1.107a4.91 4.91 0 01.802-1.805c.499-.743 1.028-1.046 1.573-.94.363.076.665.394.892.986.182.47.273.94.273 1.38 0 .394-.03.773-.106 1.122z"/></g></svg>